<?xml version="1.0" encoding="UTF-8" standalone="no"?>
<svg
   xmlns:dc="http://purl.org/dc/elements/1.1/"
   xmlns:cc="http://creativecommons.org/ns#"
   xmlns:rdf="http://www.w3.org/1999/02/22-rdf-syntax-ns#"
   xmlns:svg="http://www.w3.org/2000/svg"
   xmlns="http://www.w3.org/2000/svg"
   version="1.1"
   id="レイヤー_1"
   x="0px"
   y="0px"
   viewBox="0 0 745 72"
   xml:space="preserve"
   width="745"
   height="72"><metadata
   id="metadata117"><rdf:RDF><cc:Work
       rdf:about=""><dc:format>image/svg+xml</dc:format><dc:type
         rdf:resource="http://purl.org/dc/dcmitype/StillImage" /><dc:title></dc:title></cc:Work></rdf:RDF></metadata><defs
   id="defs115" />
<style
   type="text/css"
   id="style2">
	.st0{fill:#FF4338;}
	.st1{fill:#05CE7C;}
	.st2{fill:#05361B;}
	.st3{fill:#DA3AB3;}
	.st4{fill:#00B3E3;}
	.st5{fill:#00299F;}
	.st6{fill:#FFC843;}
	.st7{fill:#002F32;}
	.st8{fill:#FF6B00;}
	.st9{fill:#DA1800;}
	.st10{fill:#042F57;}
	.st11{fill:#DA2D2F;}
	.st12{fill:#042417;}
</style>
<g
   id="g110">
	
	
	
	
	
	
	
	
	
	
	
	
	
	
	<g
   id="g188"
   transform="matrix(1.0002669,0,0,1,-6.4017083,-12.3)"><g
     id="g10">
		<path
   class="st0"
   d="m 36.3,14.2 v 0 49 c 0,4.9 -4,8.9 -8.9,8.9 -4.9,0 -8.9,-4 -8.9,-8.9 v -49 H 6.4 v 49 c 0,8.5 5.1,16.2 13,19.4 7.9,3.2 16.9,1.4 22.9,-4.7 -3.9,-3.9 -6.1,-9.2 -6,-14.7 v -49"
   id="path4" />
		<path
   class="st1"
   d="M 78.2,14.2 H 66.1 v 49 c 0,4.9 -4,8.9 -8.9,8.9 -4.9,0 -8.9,-4 -8.9,-8.9 v -49 49 c 0,5.5 -2.2,10.8 -6,14.7 6,6.1 15,7.9 22.9,4.7 7.9,-3.2 13,-10.9 13,-19.4 v -49"
   id="path6" />
		<path
   class="st2"
   d="M 48.4,14.2 H 36.3 v 49 c 0,5.5 2.2,10.8 6,14.7 3.9,-3.9 6.1,-9.2 6,-14.7 l 0.1,-49"
   id="path8" />
	</g><g
     id="g18">
		<path
   class="st3"
   d="m 105.7,40.2 c -2.5,0 -5.1,0.5 -7.4,1.5 v 18.1 c 0,-4.1 3.3,-7.4 7.4,-7.4 4.1,0 7.4,3.3 7.4,7.4 v 24.5 h 12.1 V 59.8 c 0,-10.8 -8.7,-19.5 -19.5,-19.6"
   id="path12" />
		<path
   class="st4"
   d="M 98.3,14.3 H 86.2 v 45.5 c 0,-7.9 4.8,-15 12.1,-18.1 V 14.3"
   id="path14" />
		<path
   class="st5"
   d="M 98.3,41.7 C 91,44.7 86.2,51.8 86.2,59.8 V 84.3 H 98.3 V 59.8 41.7"
   id="path16" />
	</g><g
     id="g24">
		<polyline
   class="st6"
   points="145.3,40.2 133.2,40.2 133.2,84.2 145.3,84.2 145.3,40.2   "
   id="polyline20" />
		<polyline
   class="st3"
   points="145.3,14.4 133.2,14.4 133.2,27.2 145.3,27.2 145.3,14.4   "
   id="polyline22" />
	</g><g
     id="g32">
		<path
   class="st4"
   d="m 166.9,14.2 h -12.1 v 25.9 h 12.1 V 14.2 m 0,38.1 h -12.1 v 20.1 c 0,6.5 5.3,11.8 11.8,11.8 h 6 V 72.1 h -5.8 V 52.3"
   id="path26" />
		<path
   class="st0"
   d="m 172.7,40.2 h -5.8 v 12.1 h 5.8 V 40.2 m -17.9,0 h -3.5 v 12.1 h 3.5 V 40.2"
   id="path28" />
		<polyline
   class="st7"
   points="166.9,40.2 154.8,40.2 154.8,52.3 166.9,52.3 166.9,40.2   "
   id="polyline30" />
	</g><g
     id="g40">
		<path
   class="st8"
   d="m 200.7,40.2 c -12.1,0 -22,9.9 -22,22 0,12.3 10,22 22.7,22 6.6,0 11.8,-2.1 17.6,-7 L 211.2,68 c -3.6,3 -6.4,3.9 -10,3.9 -1.8,0.1 -3.6,-0.4 -5.1,-1.3 l -0.4,0.2 -12.2,5.1 C 181.2,73 179.7,69.6 179.1,66 l 12.4,-5.1 v 0 c 0.4,-3.4 2.5,-6.3 5.6,-7.7 1.1,-0.5 2.3,-0.7 3.4,-0.7 2.1,0 4.2,0.7 5.9,2 0.1,0.1 0.1,0.1 0.2,0.2 l 12.2,-5 c 0.8,1.2 1.6,2.4 2.1,3.7 -3.7,-8.1 -11.5,-13.2 -20.2,-13.2 m 20.1,13 v 0 0 m 0,0.1 v 0 0 m 0.1,0.1 v 0 0 m 0,0.1 v 0 0 m 2.4,5.7 -12.2,5 12.2,-5"
   id="path34" />
		<path
   class="st3"
   d="m 220.8,53.2 v 0 0 m 0,0.1 v 0 0 m 0.1,0 v 0 0 m 0,0.1 v 0 0 m 0,0.1 v 0 l 2.4,5.7 -2.4,-5.7 v 0 m -14.4,1 -7.5,3.1 -7.2,3 -0.4,0.2 c -0.6,5.1 2.1,8 4.3,9.6 0.1,0.1 0.2,0.2 0.4,0.3 l 13.5,-5.6 1.7,-0.7 c -0.2,-0.1 -1.6,-7 -4.8,-9.9"
   id="path36" />
		<path
   class="st9"
   d="m 218.6,49.5 -12.2,5 c 3.2,2.9 4.7,9.8 4.7,9.8 l 12.2,-5 -2.4,-5.6 v -0.1 0 -0.1 0 -0.1 0 -0.1 0 0 c -0.7,-1.4 -1.4,-2.7 -2.3,-3.8 M 191.4,60.7 179,65.8 c 0.6,3.6 2.1,7 4.4,9.9 l 12.2,-5.1 0.4,-0.2 c -0.1,-0.1 -0.3,-0.2 -0.4,-0.3 -2.1,-1.4 -4.8,-4.3 -4.2,-9.4"
   id="path38" />
	</g><g
     id="g44">
		<path
   class="st0"
   d="m 279.4,12.3 c -11.6,0 -20.8,8.3 -21.2,19.3 -0.3,7.1 2.8,16.8 19.2,22.4 11.2,3.8 11,8.7 10.9,10.2 -0.2,4.4 -4,7.6 -8.9,7.6 -6,0 -8.4,-3 -9.3,-5.5 l -11.5,4.4 c 1.2,3.1 6.2,13.4 20.9,13.4 11.6,0 20.8,-8.3 21.2,-19.3 0.3,-7.1 -2.8,-16.8 -19.2,-22.4 -11.2,-3.8 -11,-8.7 -10.9,-10.2 0.2,-4.4 4,-7.6 8.9,-7.6 6,0 8.4,3 9.3,5.5 l 11.5,-4.4 C 299,22.6 294,12.3 279.4,12.3"
   id="path42" />
	</g><g
     id="g52">
		<path
   class="st4"
   d="m 322.2,14.2 h -12.1 v 25.9 h 12.1 V 14.2 m 0,38.1 h -12.1 v 20.1 c 0,6.5 5.3,11.8 11.8,11.8 h 6 V 72.1 h -5.8 l 0.1,-19.8"
   id="path46" />
		<path
   class="st0"
   d="m 328,40.2 h -5.8 V 52.3 H 328 V 40.2 m -17.9,0 h -3.5 v 12.1 h 3.5 V 40.2"
   id="path48" />
		<polyline
   class="st7"
   points="322.2,40.2 310.1,40.2 310.1,52.3 322.2,52.3 322.2,40.2   "
   id="polyline50" />
	</g><g
     id="g56">
		<path
   class="st8"
   d="m 356,40.2 c -8.9,0 -16.9,5.4 -20.3,13.6 -3.4,8.2 -1.5,17.7 4.8,24 6.3,6.3 15.8,8.2 24,4.8 8.2,-3.4 13.5,-11.5 13.5,-20.4 0,-12.2 -9.9,-22 -22,-22 m 0,31.9 c -4,0 -7.6,-2.4 -9.2,-6.1 -1.5,-3.7 -0.7,-8 2.1,-10.8 2.8,-2.8 7.1,-3.7 10.8,-2.1 3.7,1.5 6.1,5.1 6.1,9.2 0.1,5.3 -4.3,9.8 -9.8,9.8"
   id="path54" />
	</g><g
     id="g64">
		<path
   class="st3"
   d="M 397.1,40.2 H 385 v 44 -24.7 c 0,-7.9 4.8,-15 12.1,-17.9 v -1.4"
   id="path58" />
		<path
   class="st1"
   d="m 404.3,40.2 c -2.5,0 -4.9,0.5 -7.2,1.4 v 17.9 c 0,-4 3.2,-7.2 7.2,-7.2 4,0 7.2,3.2 7.2,7.2 v 24.7 h 12.1 V 59.5 c 0,-10.7 -8.6,-19.3 -19.3,-19.3"
   id="path60" />
		<path
   class="st10"
   d="m 397.1,41.6 c -7.3,3 -12.1,10 -12.1,17.9 v 24.7 h 12.1 V 41.6"
   id="path62" />
	</g><g
     id="g72">
		<path
   class="st8"
   d="m 452.7,40.2 c -12.1,0 -22,9.9 -22,22 0,12.3 10,22 22.7,22 6.6,0 11.8,-2.1 17.6,-7 L 463.2,68 c -3.6,3 -6.4,3.9 -10,3.9 -1.8,0.1 -3.6,-0.4 -5.1,-1.3 l -0.4,0.2 -12.2,5.1 C 433.2,73 431.7,69.6 431.1,66 l 12.4,-5.1 v 0 c 0.4,-3.4 2.5,-6.3 5.6,-7.7 1.1,-0.5 2.3,-0.7 3.4,-0.7 2.1,0 4.2,0.7 5.9,2 0.1,0.1 0.1,0.1 0.2,0.2 l 12.2,-5 c 0.8,1.2 1.6,2.4 2.1,3.7 -3.7,-8.1 -11.5,-13.2 -20.2,-13.2 m 20.1,13 v 0 0 m 0,0.1 v 0 0 m 0.1,0.1 v 0 0 m 0,0.1 v 0 0 m 2.4,5.7 -12.2,5 12.2,-5"
   id="path66" />
		<path
   class="st3"
   d="m 472.8,53.2 v 0 0 m 0,0.1 v 0 0 m 0,0 v 0 0 m 0.1,0.1 v 0 0 m 0,0.1 v 0 l 2.4,5.7 -2.4,-5.7 v 0 m -14.4,1 -7.5,3.1 -7.2,3 -0.4,0.2 c -0.6,5.1 2.1,8 4.3,9.6 0.1,0.1 0.2,0.2 0.4,0.3 l 13.5,-5.6 1.7,-0.7 c -0.2,-0.1 -1.6,-7 -4.8,-9.9"
   id="path68" />
		<path
   class="st9"
   d="m 470.6,49.5 -12.2,5 c 3.2,2.9 4.7,9.8 4.7,9.8 l 12.2,-5 -2.4,-5.6 v -0.1 0 -0.1 0 -0.1 0 -0.1 0 0 c -0.7,-1.4 -1.4,-2.7 -2.3,-3.8 M 443.4,60.7 431,65.8 c 0.6,3.6 2.1,7 4.4,9.9 l 12.2,-5.1 0.4,-0.2 c -0.1,-0.1 -0.3,-0.2 -0.4,-0.3 -2.1,-1.4 -4.8,-4.3 -4.2,-9.4"
   id="path70" />
	</g><g
     id="g80">
		<path
   class="st0"
   d="m 540,14.2 v 0 49 c 0,4.9 -4,8.9 -8.9,8.9 -4.9,0 -8.9,-4 -8.9,-8.9 v -49 h -12.1 v 49 c 0,8.5 5.1,16.2 13,19.4 7.9,3.2 16.9,1.4 22.9,-4.7 -3.9,-3.9 -6.1,-9.2 -6,-14.7 v -49"
   id="path74" />
		<path
   class="st1"
   d="m 581.9,14.2 h -12.1 v 49 c 0,4.9 -4,8.9 -8.9,8.9 -4.9,0 -8.9,-4 -8.9,-8.9 v -49 49 c 0,5.5 -2.2,10.8 -6,14.7 6,6.1 15,7.9 22.9,4.7 7.9,-3.2 13,-10.9 13,-19.4 v -49"
   id="path76" />
		<path
   class="st2"
   d="M 552.1,14.2 H 540 v 49 c 0,5.5 2.2,10.8 6,14.7 3.9,-3.9 6.1,-9.2 6,-14.7 v -49"
   id="path78" />
	</g><g
     id="g84">
		<path
   class="st8"
   d="m 610.9,40.2 c -8.9,0 -16.9,5.4 -20.3,13.6 -3.4,8.2 -1.5,17.7 4.8,24 6.3,6.3 15.8,8.2 24,4.8 C 627.6,79.2 633,71.2 633,62.3 632.9,50 623,40.2 610.9,40.2 m 0,31.9 c -4,0 -7.6,-2.4 -9.2,-6.1 -1.5,-3.7 -0.7,-8 2.1,-10.8 2.8,-2.8 7.1,-3.7 10.8,-2.1 3.7,1.5 6.1,5.1 6.1,9.2 0.1,5.3 -4.3,9.8 -9.8,9.8"
   id="path82" />
	</g><g
     id="g92">
		<path
   class="st3"
   d="m 652,40.2 h -12.1 v 44 -27.7 c 0,-7.4 5,-13.9 12.1,-15.8 v -0.5"
   id="path86" />
		<path
   class="st4"
   d="m 656.3,40.2 c -1.4,0 -2.9,0.2 -4.3,0.6 v 15.8 c 0,-1.7 1,-3.3 2.6,-4 1.6,-0.7 3.4,-0.3 4.7,0.9 l 8.5,-8.6 c -3,-3 -7.2,-4.8 -11.5,-4.7"
   id="path88" />
		<path
   class="st5"
   d="m 652,40.7 c -7.1,1.9 -12.1,8.4 -12.1,15.8 V 84.2 H 652 V 40.7"
   id="path90" />
	</g><g
     id="g104">
		<path
   class="st3"
   d="m 705.1,58.1 c -3.4,3.8 -8.3,6 -13.4,6 -3.2,0 -5.8,2.6 -5.8,5.8 v 0 c 0,-2.1 1.1,-4 2.9,-5 1.8,-1 4,-1 5.8,0 1.8,1 2.9,3 2.9,5 v 14.4 h 12.1 V 69.9 c 0,-4.4 -1.6,-8.6 -4.5,-11.8"
   id="path94" />
		<path
   class="st6"
   d="m 709.6,40.2 h -12.1 v 6 c 0,3.2 -2.6,5.8 -5.8,5.8 -2,0 -3.9,0.3 -5.8,1 v 0 c 6.8,-2.3 14.4,-0.3 19.2,5.1 2.9,-3.3 4.5,-7.5 4.5,-11.8 v -6.1"
   id="path96" />
		<path
   class="st11"
   d="m 691.8,52 c -2,0 -3.9,0.3 -5.8,1 v 16.9 c 0,-3.2 2.6,-5.8 5.8,-5.8 5.1,0 10,-2.2 13.4,-6 -3.4,-3.9 -8.3,-6.1 -13.4,-6.1"
   id="path98" />
		<path
   class="st1"
   d="m 686,14.2 h -12.1 v 55.7 c 0,-7.6 4.9,-14.4 12.1,-16.9 V 14.2"
   id="path100" />
		<path
   class="st12"
   d="m 686,53 c -7.2,2.5 -12.1,9.3 -12.1,16.9 V 84.3 H 686 V 69.9 53"
   id="path102" />
	</g><g
     id="g108">
		<path
   class="st0"
   d="m 747.3,40.2 h -17.2 c -7.7,0 -14,6.3 -14,14 0,7.7 6.3,14 14,14 h 7.2 c 1.1,0 1.9,0.9 1.9,1.9 0,1 -0.9,1.9 -1.9,1.9 h -17.2 v 12.1 h 17.3 c 7.7,-0.1 13.9,-6.4 13.8,-14.1 -0.1,-7.7 -6.3,-13.9 -14,-13.9 H 730 c -1.1,0 -1.9,-0.9 -1.9,-1.9 0,-1 0.9,-1.9 1.9,-1.9 h 17.2 l 0.1,-12.1"
   id="path106" />
	</g></g>
</g>
</svg>
